<svg xmlns="http://www.w3.org/2000/svg" width="58" height="58" fill="none" viewBox="0 0 58 58">
  <g clip-path="url(#a)">
    <path fill="#FB9333" d="M20.504 57.7H1.813a1.7 1.7 0 0 1-1.7-1.7V35.61a1.7 1.7 0 0 1 1.7-1.7h18.691c.938 0 1.7.762 1.7 1.7V56a1.7 1.7 0 0 1-1.7 1.7Z"/>
    <path fill="#FB9333" d="M20.504 33.91H10.309V57.7h10.195a1.7 1.7 0 0 0 1.7-1.7V35.61a1.7 1.7 0 0 0-1.7-1.7Zm31.964-20.558-4.55-1.812-5.003 1.812-1.442 12.263a1.7 1.7 0 0 0 1.687 1.897h9.063a1.7 1.7 0 0 0 1.687-1.897l-1.442-12.263Z"/>
    <path fill="#FB9333" d="m53.91 25.615-1.443-12.263-4.55-1.812-.226.082v15.89h4.531a1.7 1.7 0 0 0 1.688-1.897Zm-29.43 0a1.7 1.7 0 0 0 1.688 1.897h9.063a1.7 1.7 0 0 0 1.687-1.897l-1.443-12.263-4.663-2.719-4.889 2.72-1.443 12.262Z"/>
    <path fill="#FB9333" d="m36.918 25.615-1.443-12.263-4.663-2.719-.113.063v16.816h4.531a1.7 1.7 0 0 0 1.688-1.897Z"/>
    <path fill="#FFAC37" d="M51.645 6.357a1.7 1.7 0 0 0-1.688-1.5h-4.531a1.7 1.7 0 0 0-1.688 1.5l-.823 6.995h9.553l-.823-6.995Z"/>
    <path fill="#FFAC37" d="M51.644 6.357a1.7 1.7 0 0 0-1.687-1.5H47.69v8.495h4.776l-.823-6.995ZM32.965 4.856h-4.531a1.7 1.7 0 0 0-1.688 1.5l-.823 6.996h9.553l-.823-6.995a1.7 1.7 0 0 0-1.688-1.5Z"/>
    <path fill="#FFAC37" d="M34.652 6.357a1.7 1.7 0 0 0-1.688-1.5H30.7v8.495h4.776l-.823-6.995Z"/>
    <path fill="#FFF8EE" d="M6.91 47.505a1.7 1.7 0 0 1-1.699-1.7v-3.398a1.7 1.7 0 1 1 3.398 0v3.398a1.7 1.7 0 0 1-1.699 1.7Z"/>
    <path fill="#fff" d="M13.707 47.505a1.7 1.7 0 0 1-1.7-1.7v-3.398a1.7 1.7 0 1 1 3.4 0v3.398a1.7 1.7 0 0 1-1.7 1.7Z"/>
    <path fill="#FFAC37" d="M44.293 57.7h11.895a1.7 1.7 0 0 0 1.699-1.7V28.814a1.7 1.7 0 0 0-1.7-1.7H22.204a1.7 1.7 0 0 0-1.699 1.7V57.7h13.594l4.87-.906 5.325.906Z"/>
    <path fill="#FFAC37" d="M56.188 27.114H39.195v29.718l5.098.868h11.895a1.7 1.7 0 0 0 1.699-1.7V28.814a1.7 1.7 0 0 0-1.7-1.7Z"/>
    <path fill="#FFF8EE" d="M29 50.903a1.7 1.7 0 0 1-1.7-1.7v-3.398a1.7 1.7 0 0 1 3.4 0v3.399a1.7 1.7 0 0 1-1.7 1.699Zm0-10.195a1.7 1.7 0 0 1-1.7-1.7V35.61a1.7 1.7 0 0 1 3.4 0v3.398a1.7 1.7 0 0 1-1.7 1.7Z"/>
    <path fill="#fff" d="M49.39 50.903a1.7 1.7 0 0 1-1.699-1.7v-3.398a1.7 1.7 0 0 1 3.399 0v3.399a1.7 1.7 0 0 1-1.7 1.699Zm0-10.195a1.7 1.7 0 0 1-1.699-1.7V35.61a1.7 1.7 0 0 1 3.399 0v3.398a1.7 1.7 0 0 1-1.7 1.7Z"/>
    <path fill="#FFF8EE" d="M35.797 40.708a1.7 1.7 0 0 1-1.7-1.7V35.61a1.7 1.7 0 0 1 3.4 0v3.398a1.7 1.7 0 0 1-1.7 1.7Z"/>
    <path fill="#fff" d="M42.594 40.708a1.7 1.7 0 0 1-1.7-1.7V35.61a1.7 1.7 0 0 1 3.399 0v3.398a1.7 1.7 0 0 1-1.7 1.7Z"/>
    <path fill="#FFF8EE" d="M42.594 44.106h-6.797a1.7 1.7 0 0 0-1.7 1.7V57.7h3.4l1.585-1.133 1.813 1.133h3.398V45.805a1.7 1.7 0 0 0-1.7-1.699Z"/>
    <path fill="#fff" d="M42.594 44.106h-3.399v12.532l1.7 1.062h3.398V45.805a1.7 1.7 0 0 0-1.7-1.699Z"/>
    <path fill="#FFAC37" d="M37.496 47.505h3.399V57.7h-3.399V47.504Z"/>
    <path fill="#FFAC37" d="M39.195 47.505h1.7V57.7h-1.7V47.504Z"/>
  </g>
  <defs>
    <clipPath id="a">
      <path fill="#fff" d="M0 0h58v58H0z"/>
    </clipPath>
  </defs>
</svg>