<svg xmlns="http://www.w3.org/2000/svg" width="47" height="46" fill="none" viewBox="0 0 47 46">
  <g clip-path="url(#a)">
    <path fill="#FFB35C" d="M21.343 16.891h-2.776v2.777h2.776a1.388 1.388 0 1 0 0-2.777Zm0 9.719h-2.776v2.776h2.776a1.388 1.388 0 1 0 0-2.776Z"/>
    <path fill="#FFAC37" d="M19.955 27.998c0-.767-.621-1.388-1.388-1.388h-.787v-6.942h.787a1.388 1.388 0 0 0 0-2.777h-.787v-3.563a1.388 1.388 0 0 0-2.777 0v3.563H8.062v-3.563a1.388 1.388 0 0 0-2.777 0v3.563H1.722a1.388 1.388 0 0 0 0 2.777h3.563v6.942H1.722a1.388 1.388 0 0 0 0 2.776h3.563v3.564a1.388 1.388 0 1 0 2.777 0v-3.564h6.941v3.564a1.388 1.388 0 1 0 2.777 0v-3.564h.787c.767 0 1.388-.621 1.388-1.388Zm-4.952-1.388H8.062v-6.942h6.941v6.942Zm27.165 11.06V4.165c0-2.3-1.864-4.165-4.165-4.165H25.508a4.165 4.165 0 1 0 0 8.33v29.34a4.165 4.165 0 1 0 0 8.33h16.66a4.165 4.165 0 0 0 0-8.33Z"/>
    <path fill="#FFBE40" d="M36.615 40.586V4.304c0-.767-.622-1.388-1.389-1.388h-9.718a1.388 1.388 0 0 0 0 2.776h2.777v34.894h-2.777a1.388 1.388 0 0 0 0 2.776h13.884a2.777 2.777 0 0 1-2.777-2.776Z"/>
  </g>
  <defs>
    <clipPath id="a">
      <path fill="#fff" d="M0 0h46v46H0z" transform="translate(.333)"/>
    </clipPath>
  </defs>
</svg>